G04 start of page 2 for group 0 idx 0 *
G04 Title: (unknown), top *
G04 Creator: pcb 20110918 *
G04 CreationDate: Fri 21 Dec 2012 05:24:47 PM GMT UTC *
G04 For: pmonta *
G04 Format: Gerber/RS-274X *
G04 PCB-Dimensions: 100000 50000 *
G04 PCB-Coordinate-Origin: lower left *
%MOIN*%
%FSLAX25Y25*%
%LNTOP*%
%ADD22C,0.0039*%
%ADD21C,0.0216*%
%ADD20C,0.0177*%
%ADD19C,0.0138*%
%ADD18R,0.0108X0.0108*%
%ADD17R,0.0177X0.0177*%
%ADD16R,0.0039X0.0039*%
%ADD15R,0.0275X0.0275*%
%ADD14R,0.0059X0.0059*%
%ADD13R,0.0078X0.0078*%
%ADD12R,0.0137X0.0137*%
%ADD11C,0.0001*%
G54D11*G36*
X36532Y45914D02*X38338Y47720D01*
X39588Y46470D01*
X37782Y44664D01*
X36532Y45914D01*
G37*
G36*
X38758Y43688D02*X40564Y45494D01*
X41814Y44244D01*
X40008Y42438D01*
X38758Y43688D01*
G37*
G36*
X36304Y40509D02*X38110Y42315D01*
X39360Y41065D01*
X37554Y39259D01*
X36304Y40509D01*
G37*
G36*
X38530Y38283D02*X40336Y40089D01*
X41586Y38839D01*
X39780Y37033D01*
X38530Y38283D01*
G37*
G36*
X53669Y40246D02*X54642Y41219D01*
X55614Y40247D01*
X54641Y39274D01*
X53669Y40246D01*
G37*
G36*
X55338Y41915D02*X56311Y42888D01*
X57283Y41916D01*
X56310Y40943D01*
X55338Y41915D01*
G37*
G36*
X53222Y43428D02*X54195Y44401D01*
X55167Y43429D01*
X54194Y42456D01*
X53222Y43428D01*
G37*
G36*
X54891Y45097D02*X55864Y46070D01*
X56836Y45098D01*
X55863Y44125D01*
X54891Y45097D01*
G37*
G36*
X59254Y42888D02*X60227Y41915D01*
X59255Y40943D01*
X58282Y41916D01*
X59254Y42888D01*
G37*
G36*
X60923Y41219D02*X61896Y40246D01*
X60924Y39274D01*
X59951Y40247D01*
X60923Y41219D01*
G37*
G36*
X59922Y46032D02*X60895Y45059D01*
X59923Y44087D01*
X58950Y45060D01*
X59922Y46032D01*
G37*
G36*
X61591Y44363D02*X62564Y43390D01*
X61592Y42418D01*
X60619Y43391D01*
X61591Y44363D01*
G37*
G54D12*X54331Y36614D02*X54332D01*
X54251Y34114D02*X54252D01*
X56692Y36614D02*X56693D01*
X56612Y34114D02*X56613D01*
X60132Y33953D02*Y33952D01*
Y36314D02*Y36313D01*
G54D13*X48138Y26813D02*X54042D01*
G54D11*G36*
X57881Y23940D02*X62609Y28668D01*
X63163Y28114D01*
X58435Y23386D01*
X57881Y23940D01*
G37*
G36*
X59272Y22548D02*X64001Y27277D01*
X64555Y26723D01*
X59826Y21994D01*
X59272Y22548D01*
G37*
G36*
X60664Y21156D02*X65393Y25885D01*
X65947Y25331D01*
X61218Y20602D01*
X60664Y21156D01*
G37*
G36*
X62056Y19764D02*X66785Y24493D01*
X67339Y23939D01*
X62610Y19210D01*
X62056Y19764D01*
G37*
G54D13*X48138Y24845D02*X54042D01*
X48138Y22876D02*X54042D01*
X48138Y20908D02*X54042D01*
X48339Y14045D02*Y8141D01*
X50307Y14045D02*Y8141D01*
X52276Y14045D02*Y8141D01*
X54244Y14045D02*Y8141D01*
G54D11*G36*
X59221Y11769D02*X63949Y7041D01*
X63395Y6487D01*
X58667Y11215D01*
X59221Y11769D01*
G37*
G36*
X60612Y13161D02*X65341Y8432D01*
X64787Y7878D01*
X60058Y12607D01*
X60612Y13161D01*
G37*
G36*
X62004Y14553D02*X66733Y9824D01*
X66179Y9270D01*
X61450Y13999D01*
X62004Y14553D01*
G37*
G36*
X63396Y15945D02*X68125Y11216D01*
X67571Y10662D01*
X62842Y15391D01*
X63396Y15945D01*
G37*
G36*
X35250Y19248D02*X39005Y23003D01*
X39420Y22588D01*
X35665Y18833D01*
X35250Y19248D01*
G37*
G36*
X36363Y18135D02*X40118Y21890D01*
X40533Y21475D01*
X36778Y17720D01*
X36363Y18135D01*
G37*
G36*
X37476Y17021D02*X41232Y20777D01*
X41647Y20362D01*
X37891Y16606D01*
X37476Y17021D01*
G37*
G36*
X38590Y15907D02*X42346Y19663D01*
X42761Y19248D01*
X39005Y15492D01*
X38590Y15907D01*
G37*
G54D14*X25938Y9918D02*Y5194D01*
X27512Y9918D02*Y5194D01*
X29087Y9918D02*Y5194D01*
X30662Y9918D02*Y5194D01*
G54D11*G36*
X35665Y8462D02*X39420Y4707D01*
X39005Y4292D01*
X35250Y8047D01*
X35665Y8462D01*
G37*
G36*
X36778Y9575D02*X40533Y5820D01*
X40118Y5405D01*
X36363Y9160D01*
X36778Y9575D01*
G37*
G36*
X37891Y10689D02*X41647Y6933D01*
X41232Y6518D01*
X37476Y10274D01*
X37891Y10689D01*
G37*
G36*
X39005Y11803D02*X42761Y8047D01*
X42346Y7632D01*
X38590Y11388D01*
X39005Y11803D01*
G37*
G36*
X15157Y45833D02*X17798Y48474D01*
X19744Y46528D01*
X17103Y43887D01*
X15157Y45833D01*
G37*
G36*
X18776Y42214D02*X21417Y44855D01*
X23363Y42909D01*
X20722Y40268D01*
X18776Y42214D01*
G37*
G36*
X30000Y45416D02*X31806Y43610D01*
X30556Y42360D01*
X28750Y44166D01*
X30000Y45416D01*
G37*
G36*
X30363Y40018D02*X32169Y38212D01*
X30919Y36962D01*
X29113Y38768D01*
X30363Y40018D01*
G37*
G36*
X32589Y42244D02*X34395Y40438D01*
X33145Y39188D01*
X31339Y40994D01*
X32589Y42244D01*
G37*
G36*
X32226Y47642D02*X34032Y45836D01*
X32782Y44586D01*
X30976Y46392D01*
X32226Y47642D01*
G37*
G36*
X4259Y44872D02*X6900Y42231D01*
X4954Y40285D01*
X2313Y42926D01*
X4259Y44872D01*
G37*
G36*
X7878Y48491D02*X10519Y45850D01*
X8573Y43904D01*
X5932Y46545D01*
X7878Y48491D01*
G37*
G36*
X5556Y37875D02*X8197Y35234D01*
X6251Y33288D01*
X3610Y35929D01*
X5556Y37875D01*
G37*
G36*
X9175Y41494D02*X11816Y38853D01*
X9870Y36907D01*
X7229Y39548D01*
X9175Y41494D01*
G37*
G36*
X13963Y39030D02*X16604Y41671D01*
X18550Y39725D01*
X15909Y37084D01*
X13963Y39030D01*
G37*
G36*
X17582Y35411D02*X20223Y38052D01*
X22169Y36106D01*
X19528Y33465D01*
X17582Y35411D01*
G37*
G54D15*X4722Y29292D02*Y28308D01*
X9840Y29292D02*Y28308D01*
X17225Y29134D02*X18209D01*
X4722Y23592D02*Y22608D01*
X9840Y23592D02*Y22608D01*
G54D16*X5303Y16202D02*X8845D01*
X5303Y15021D02*X8845D01*
X5303Y13840D02*X8845D01*
X5303Y12659D02*X8845D01*
X5502Y7362D02*Y3820D01*
X6683Y7362D02*Y3820D01*
X7864Y7362D02*Y3820D01*
X9045Y7362D02*Y3820D01*
G54D15*X17225Y24016D02*X18209D01*
G54D11*G36*
X13406Y14164D02*X16186Y16944D01*
X16462Y16668D01*
X13682Y13888D01*
X13406Y14164D01*
G37*
G36*
X14241Y13329D02*X17021Y16109D01*
X17297Y15833D01*
X14517Y13053D01*
X14241Y13329D01*
G37*
G36*
X15076Y12494D02*X17856Y15274D01*
X18132Y14998D01*
X15352Y12218D01*
X15076Y12494D01*
G37*
G36*
X15911Y11658D02*X18692Y14439D01*
X18968Y14163D01*
X16187Y11382D01*
X15911Y11658D01*
G37*
G36*
X13289Y5940D02*X16069Y3160D01*
X15793Y2884D01*
X13013Y5664D01*
X13289Y5940D01*
G37*
G36*
X14124Y6775D02*X16904Y3995D01*
X16628Y3719D01*
X13848Y6499D01*
X14124Y6775D01*
G37*
G36*
X14959Y7610D02*X17739Y4830D01*
X17463Y4554D01*
X14683Y7334D01*
X14959Y7610D01*
G37*
G36*
X15794Y8446D02*X18575Y5665D01*
X18299Y5389D01*
X15518Y8170D01*
X15794Y8446D01*
G37*
G54D17*X30180Y29299D02*Y28513D01*
Y33202D02*Y32416D01*
G54D14*X25934Y20918D02*X30658D01*
X25934Y19344D02*X30658D01*
X25934Y17769D02*X30658D01*
X25934Y16194D02*X30658D01*
G54D17*X33328Y29299D02*Y28513D01*
X38583Y29726D02*X39369D01*
X38583Y32874D02*X39369D01*
X33328Y33202D02*Y32416D01*
G54D11*G36*
X80947Y43544D02*X81528Y44125D01*
X82082Y43571D01*
X81501Y42990D01*
X80947Y43544D01*
G37*
G36*
X82088Y42403D02*X82669Y42984D01*
X83223Y42430D01*
X82642Y41849D01*
X82088Y42403D01*
G37*
G36*
X81005Y45743D02*X81586Y46324D01*
X82140Y45770D01*
X81559Y45189D01*
X81005Y45743D01*
G37*
G36*
X82146Y44602D02*X82727Y45183D01*
X83281Y44629D01*
X82700Y44048D01*
X82146Y44602D01*
G37*
G54D13*X78207Y38376D02*Y38338D01*
X78307Y40176D02*Y40138D01*
G54D18*X72011Y30743D02*X79687D01*
X72011Y28184D02*X79687D01*
G54D13*X79821Y38376D02*Y38338D01*
X79921Y40176D02*Y40138D01*
G54D11*G36*
X78030Y43154D02*X78611Y42573D01*
X78057Y42019D01*
X77476Y42600D01*
X78030Y43154D01*
G37*
G36*
X79171Y44295D02*X79752Y43714D01*
X79198Y43160D01*
X78617Y43741D01*
X79171Y44295D01*
G37*
G36*
X77701Y45283D02*X78282Y44702D01*
X77728Y44148D01*
X77147Y44729D01*
X77701Y45283D01*
G37*
G36*
X78842Y46424D02*X79423Y45843D01*
X78869Y45289D01*
X78288Y45870D01*
X78842Y46424D01*
G37*
G54D13*X82295Y38543D02*X82333D01*
X82295Y40157D02*X82333D01*
G54D11*G36*
X85340Y26850D02*X91532Y33042D01*
X92296Y32278D01*
X86104Y26086D01*
X85340Y26850D01*
G37*
G36*
X87150Y25041D02*X93341Y31232D01*
X94105Y30468D01*
X87914Y24277D01*
X87150Y25041D01*
G37*
G36*
X88959Y23231D02*X95151Y29423D01*
X95915Y28659D01*
X89723Y22467D01*
X88959Y23231D01*
G37*
G36*
X90769Y21422D02*X96960Y27613D01*
X97724Y26849D01*
X91533Y20658D01*
X90769Y21422D01*
G37*
G54D18*X72011Y25625D02*X79687D01*
X72011Y23066D02*X79687D01*
X72312Y13359D02*Y5683D01*
X74871Y13359D02*Y5683D01*
X77430Y13359D02*Y5683D01*
X79989Y13359D02*Y5683D01*
G54D11*G36*
X86497Y10641D02*X92689Y4449D01*
X91925Y3685D01*
X85733Y9877D01*
X86497Y10641D01*
G37*
G36*
X88307Y12450D02*X94498Y6259D01*
X93734Y5495D01*
X87543Y11686D01*
X88307Y12450D01*
G37*
G36*
X90116Y14260D02*X96308Y8068D01*
X95544Y7304D01*
X89352Y13496D01*
X90116Y14260D01*
G37*
G36*
X91926Y16069D02*X98117Y9878D01*
X97353Y9114D01*
X91162Y15305D01*
X91926Y16069D01*
G37*
G54D19*X45276Y40551D03*
Y36614D03*
Y38583D03*
X47244Y40551D03*
Y38583D03*
Y36614D03*
X49213Y40551D03*
Y38583D03*
Y36614D03*
G54D20*X66535Y43701D03*
X69685D03*
Y40551D03*
X66535D03*
Y37402D03*
X69685D03*
X72835D03*
Y40551D03*
Y43701D03*
G54D21*X92520Y42913D03*
X88583D03*
X96457D03*
X88583Y38976D03*
X92520D03*
X96457D03*
X88583Y46850D03*
X92520D03*
X96457D03*
G54D22*M02*
