G04 This is an RS-274x file exported by *
G04 gerbv version 2.6.0 *
G04 More information is available about gerbv at *
G04 http://gerbv.gpleda.org/ *
G04 --End of header info--*
%MOIN*%
%FSLAX34Y34*%
%IPPOS*%
G04 --Define apertures--*
%ADD10R,0.0280X0.0280*%
%ADD11R,0.0591X0.0591*%
%ADD12R,0.0197X0.0197*%
%ADD13R,0.0295X0.0295*%
%ADD14R,0.0512X0.0512*%
%ADD15R,0.0965X0.0965*%
%ADD16R,0.0098X0.0098*%
%ADD17C,0.0001*%
%ADD18R,0.0118X0.0118*%
%ADD19R,0.0160X0.0160*%
%ADD20R,0.0300X0.0300*%
%ADD21R,0.0370X0.0370*%
G04 --Start main section--*
G54D13*
G01X0020144Y0004949D02*
G01X0020144Y0004851D01*
G01X0020656Y0004949D02*
G01X0020656Y0004851D01*
G54D14*
G01X0018496Y0005619D02*
G01X0018496Y0005541D01*
G01X0019204Y0005619D02*
G01X0019204Y0005541D01*
G54D12*
G01X0018387Y0007169D02*
G01X0018387Y0007091D01*
G01X0018073Y0007169D02*
G01X0018073Y0007091D01*
G01X0019023Y0006739D02*
G01X0019023Y0006661D01*
G01X0019337Y0006739D02*
G01X0019337Y0006661D01*
G01X0018723Y0006299D02*
G01X0018723Y0006221D01*
G01X0019037Y0006299D02*
G01X0019037Y0006221D01*
G54D14*
G01X0019975Y0006771D02*
G01X0020526Y0006771D01*
G01X0019975Y0005589D02*
G01X0020526Y0005589D01*
G54D12*
G01X0021221Y0006590D02*
G01X0021299Y0006590D01*
G01X0021221Y0006905D02*
G01X0021299Y0006905D01*
G54D16*
G01X0021840Y0009927D02*
G01X0022332Y0009927D01*
G01X0021840Y0009730D02*
G01X0022332Y0009730D01*
G01X0021840Y0009533D02*
G01X0022332Y0009533D01*
G01X0021840Y0009336D02*
G01X0022332Y0009336D01*
G01X0021840Y0009139D02*
G01X0022332Y0009139D01*
G01X0021840Y0008942D02*
G01X0022332Y0008942D01*
G01X0021840Y0008745D02*
G01X0022332Y0008745D01*
G01X0021840Y0008548D02*
G01X0022332Y0008548D01*
G01X0021840Y0008352D02*
G01X0022332Y0008352D01*
G01X0021840Y0008155D02*
G01X0022332Y0008155D01*
G01X0021840Y0007958D02*
G01X0022332Y0007958D01*
G01X0021840Y0007761D02*
G01X0022332Y0007761D01*
G01X0021840Y0007564D02*
G01X0022332Y0007564D01*
G01X0021840Y0007367D02*
G01X0022332Y0007367D01*
G01X0021840Y0007170D02*
G01X0022332Y0007170D01*
G01X0021840Y0006973D02*
G01X0022332Y0006973D01*
G01X0022873Y0006432D02*
G01X0022873Y0005940D01*
G01X0023070Y0006432D02*
G01X0023070Y0005940D01*
G01X0023267Y0006432D02*
G01X0023267Y0005940D01*
G01X0023464Y0006432D02*
G01X0023464Y0005940D01*
G01X0023661Y0006432D02*
G01X0023661Y0005940D01*
G01X0023858Y0006432D02*
G01X0023858Y0005940D01*
G01X0024055Y0006432D02*
G01X0024055Y0005940D01*
G01X0024252Y0006432D02*
G01X0024252Y0005940D01*
G01X0024449Y0006432D02*
G01X0024449Y0005940D01*
G01X0024645Y0006432D02*
G01X0024645Y0005940D01*
G01X0024842Y0006432D02*
G01X0024842Y0005940D01*
G01X0025039Y0006432D02*
G01X0025039Y0005940D01*
G01X0025236Y0006432D02*
G01X0025236Y0005940D01*
G01X0025433Y0006432D02*
G01X0025433Y0005940D01*
G01X0025630Y0006432D02*
G01X0025630Y0005940D01*
G01X0025827Y0006432D02*
G01X0025827Y0005940D01*
G54D17*
G36*
G01X0023855Y0008945D02*
G01X0023855Y0008495D01*
G01X0024305Y0008495D01*
G01X0024305Y0008945D01*
G01X0023855Y0008945D01*
G37*
G36*
G01X0023855Y0008405D02*
G01X0023855Y0007955D01*
G01X0024305Y0007955D01*
G01X0024305Y0008405D01*
G01X0023855Y0008405D01*
G37*
G36*
G01X0024395Y0008945D02*
G01X0024395Y0008495D01*
G01X0024845Y0008495D01*
G01X0024845Y0008945D01*
G01X0024395Y0008945D01*
G37*
G36*
G01X0024395Y0008405D02*
G01X0024395Y0007955D01*
G01X0024845Y0007955D01*
G01X0024845Y0008405D01*
G01X0024395Y0008405D01*
G37*
G54D12*
G01X0020663Y0009679D02*
G01X0020663Y0009601D01*
G01X0020977Y0009679D02*
G01X0020977Y0009601D01*
G01X0020977Y0009269D02*
G01X0020977Y0009191D01*
G01X0020663Y0009269D02*
G01X0020663Y0009191D01*
G01X0020663Y0008889D02*
G01X0020663Y0008811D01*
G01X0020977Y0008889D02*
G01X0020977Y0008811D01*
G01X0020983Y0008509D02*
G01X0020983Y0008431D01*
G01X0020668Y0008509D02*
G01X0020668Y0008431D01*
G01X0020673Y0008149D02*
G01X0020673Y0008071D01*
G01X0020987Y0008149D02*
G01X0020987Y0008071D01*
G01X0020987Y0007769D02*
G01X0020987Y0007691D01*
G01X0020673Y0007769D02*
G01X0020673Y0007691D01*
G01X0019125Y0008649D02*
G01X0019125Y0008571D01*
G01X0018810Y0008649D02*
G01X0018810Y0008571D01*
G01X0019125Y0008269D02*
G01X0019125Y0008191D01*
G01X0018810Y0008269D02*
G01X0018810Y0008191D01*
G01X0019135Y0007699D02*
G01X0019135Y0007621D01*
G01X0018820Y0007699D02*
G01X0018820Y0007621D01*
G54D13*
G01X0022471Y0004189D02*
G01X0022569Y0004189D01*
G01X0022471Y0004701D02*
G01X0022569Y0004701D01*
G54D12*
G01X0023031Y0004400D02*
G01X0023109Y0004400D01*
G01X0023031Y0004715D02*
G01X0023109Y0004715D01*
G54D13*
G01X0021538Y0005459D02*
G01X0021538Y0005361D01*
G01X0022050Y0005459D02*
G01X0022050Y0005361D01*
G54D14*
G01X0021321Y0004026D02*
G01X0021399Y0004026D01*
G01X0021321Y0004734D02*
G01X0021399Y0004734D01*
G54D12*
G01X0021971Y0004565D02*
G01X0022049Y0004565D01*
G01X0021971Y0004880D02*
G01X0022049Y0004880D01*
M02*
